# xmcd
#
# Track frame offsets: 
#        150
#        15380
#        27362
#        41547
#        58775
#        70017
#        82990
#        98057
#        112507
#        127557
#        145480
#        158137
#        173722
#        186855
#        201017
#        216940
#        228302
#        243997
#        255810
#        272952
#
# Disc length: 3829 seconds
#
# Revision: 2
# Processed by: cddbd v1.5.2PL0 Copyright (c) Steve Scherf et al.
# Submitted via: ExactAudioCopy v1.1
#
DISCID=fc0ef314
DTITLE=Various Artist - 新版 抒情歌大全集 disc4 女ひとり
DYEAR=1994
DGENRE=Folk
TTITLE0=デューク・エイセス - 女ひとり
TTITLE1=デューク・エイセス - おさななじみ
TTITLE2=坂本 九 - 上を向いて歩こう
TTITLE3=坂本 九 - 見上げてごらん夜の星を
TTITLE4=トワエ・モア - 空よ
TTITLE5=トワエ・モア - 誰もいない海
TTITLE6=ジェリー藤尾 - 遠くへ行きたい
TTITLE7=加藤和彦と北村 修 - あの素晴らしい愛をもう一度
TTITLE8=グラシェラ・スサーナ - 白い想い出
TTITLE9=アリス - 今はもうだれも
TTITLE10=デューク・エイセス - いい湯だな
TTITLE11=デューク・エイセス - 筑波山麓合唱団
TTITLE12=坂本 九 - 涙くんさよなら
TTITLE13=トワエ・モア - 或る日突然
TTITLE14=トワエ・モア - 虹と雪のバラード
TTITLE15=グラシェラ・スサーナ - 雪が降る
TTITLE16=フォー・セインツ - 小さな日記
TTITLE17=デューク・エイセス - 君の故郷は
TTITLE18=白根一男 - はたちの詩集
TTITLE19=由紀さおり - 恋はやさし野辺の花よ
EXTD=
EXTT0=
EXTT1=
EXTT2=
EXTT3=
EXTT4=
EXTT5=
EXTT6=
EXTT7=
EXTT8=
EXTT9=
EXTT10=
EXTT11=
EXTT12=
EXTT13=
EXTT14=
EXTT15=
EXTT16=
EXTT17=
EXTT18=
EXTT19=
PLAYORDER=
